<svg xmlns="http://www.w3.org/2000/svg" xmlns:xlink="http://www.w3.org/1999/xlink" width="200" zoomAndPan="magnify" viewBox="0 0 150 60" height="80" preserveAspectRatio="xMidYMid meet" version="1.0"><defs><g/></defs><g fill="#52e500" fill-opacity="1"><g transform="translate(1.389941, 46.456853)"><g><path d="M 0 -35.109375 L 3.90625 -35.109375 L 3.90625 -39.015625 L 27.3125 -39.015625 L 27.3125 -35.109375 L 31.21875 -35.109375 L 31.21875 -3.90625 L 27.3125 -3.90625 L 27.3125 0 L 3.90625 0 L 3.90625 -3.90625 L 0 -3.90625 Z M 15.609375 -15.609375 L 15.609375 -11.703125 L 11.703125 -11.703125 L 11.703125 -7.796875 L 23.40625 -7.796875 L 23.40625 -19.515625 L 19.515625 -19.515625 L 19.515625 -15.609375 Z M 7.796875 -19.515625 L 11.703125 -19.515625 L 11.703125 -23.40625 L 15.609375 -23.40625 L 15.609375 -27.3125 L 19.515625 -27.3125 L 19.515625 -31.21875 L 7.796875 -31.21875 Z M 7.796875 -19.515625 "/></g></g></g><g fill="#52e500" fill-opacity="1"><g transform="translate(37.169499, 46.527118)"><g><path d="M 0 -24.796875 L 6.203125 -24.796875 L 6.203125 -21.703125 L 9.296875 -21.703125 L 9.296875 -18.59375 L 12.40625 -18.59375 L 12.40625 -21.703125 L 15.5 -21.703125 L 15.5 -24.796875 L 21.703125 -24.796875 L 21.703125 -18.59375 L 18.59375 -18.59375 L 18.59375 -15.5 L 15.5 -15.5 L 15.5 -9.296875 L 18.59375 -9.296875 L 18.59375 -6.203125 L 21.703125 -6.203125 L 21.703125 0 L 15.5 0 L 15.5 -3.09375 L 12.40625 -3.09375 L 12.40625 -6.203125 L 9.296875 -6.203125 L 9.296875 -3.09375 L 6.203125 -3.09375 L 6.203125 0 L 0 0 L 0 -6.203125 L 3.09375 -6.203125 L 3.09375 -9.296875 L 6.203125 -9.296875 L 6.203125 -15.5 L 3.09375 -15.5 L 3.09375 -18.59375 L 0 -18.59375 Z M 0 -24.796875 "/></g></g></g><g fill="#52e500" fill-opacity="1"><g transform="translate(61.970737, 46.527118)"><g><path d="M 0 -6.203125 L 6.203125 -6.203125 L 6.203125 0 L 0 0 Z M 0 -6.203125 "/></g></g></g><g fill="#52e500" fill-opacity="1"><g transform="translate(70.34531, 46.42182)"><g><path d="M 0 -39 L 23.40625 -39 L 23.40625 -35.09375 L 27.296875 -35.09375 L 27.296875 -31.203125 L 31.203125 -31.203125 L 31.203125 -7.796875 L 27.296875 -7.796875 L 27.296875 -3.90625 L 23.40625 -3.90625 L 23.40625 0 L 0 0 Z M 7.796875 -7.796875 L 23.40625 -7.796875 L 23.40625 -31.203125 L 7.796875 -31.203125 Z M 7.796875 -7.796875 "/></g></g></g><g fill="#52e500" fill-opacity="1"><g transform="translate(103.204683, 45.675)"><g><path d="M 3.09375 -24.796875 L 18.59375 -24.796875 L 18.59375 -21.703125 L 21.703125 -21.703125 L 21.703125 0 L 3.09375 0 L 3.09375 -3.09375 L 0 -3.09375 L 0 -12.40625 L 3.09375 -12.40625 L 3.09375 -15.5 L 15.5 -15.5 L 15.5 -18.59375 L 3.09375 -18.59375 Z M 6.203125 -6.203125 L 15.5 -6.203125 L 15.5 -9.296875 L 6.203125 -9.296875 Z M 6.203125 -6.203125 "/></g></g></g><g fill="#52e500" fill-opacity="1"><g transform="translate(128.001522, 45.675)"><g><path d="M 0 -24.796875 L 6.203125 -24.796875 L 6.203125 -6.203125 L 15.5 -6.203125 L 15.5 -24.796875 L 21.703125 -24.796875 L 21.703125 6.203125 L 18.59375 6.203125 L 18.59375 9.296875 L 3.09375 9.296875 L 3.09375 3.09375 L 15.5 3.09375 L 15.5 0 L 3.09375 0 L 3.09375 -3.09375 L 0 -3.09375 Z M 0 -24.796875 "/></g></g></g></svg>