<svg width="61" height="37" viewBox="0 0 61 37" fill="none" xmlns="http://www.w3.org/2000/svg">
<rect width="61" height="37" fill="black"/>
<path d="M26.3281 24.6689C26.3281 25.9473 27.3645 26.9837 28.6429 26.9837H51.5333C52.8118 26.9837 53.8481 25.9473 53.8481 24.6689V5.89362C53.8481 4.61521 52.8118 3.57886 51.5333 3.57886H28.6429C27.3645 3.57886 26.3281 4.61521 26.3281 5.89362V24.6689Z" fill="#DCD0F8"/>
<path d="M13.7838 33.4751C13.7425 33.4826 13.6966 33.4882 13.6461 33.492C13.5973 33.4957 13.5514 33.4976 13.5083 33.4976C13.469 33.4976 13.4231 33.4957 13.3706 33.492C13.3181 33.4882 13.2713 33.4826 13.2301 33.4751V30.4115C13.2713 30.4022 13.3181 30.3965 13.3706 30.3947C13.4231 30.3909 13.469 30.389 13.5083 30.389C13.5514 30.389 13.5973 30.3909 13.6461 30.3947C13.6966 30.3965 13.7425 30.4022 13.7838 30.4115V31.325C13.7838 31.3887 13.7828 31.4449 13.781 31.4936C13.7791 31.5423 13.7782 31.5967 13.7782 31.6566C13.8044 31.6566 13.8522 31.6557 13.9215 31.6538C13.9927 31.6519 14.0405 31.651 14.0648 31.651H14.8827C14.9052 31.651 14.9511 31.6519 15.0204 31.6538C15.0916 31.6557 15.1404 31.6566 15.1666 31.6566C15.1666 31.5967 15.1657 31.5423 15.1638 31.4936C15.1619 31.4449 15.161 31.3887 15.161 31.325V30.4115C15.2003 30.4022 15.2444 30.3965 15.2931 30.3947C15.3418 30.3909 15.3877 30.389 15.4308 30.389C15.472 30.389 15.5189 30.3909 15.5713 30.3947C15.6238 30.3965 15.6716 30.4022 15.7147 30.4115V33.4751C15.6716 33.4826 15.6247 33.4882 15.5741 33.492C15.5254 33.4957 15.4786 33.4976 15.4336 33.4976C15.3905 33.4976 15.3446 33.4957 15.2959 33.492C15.2472 33.4882 15.2022 33.4826 15.161 33.4751V32.4436C15.161 32.378 15.1619 32.3209 15.1638 32.2722C15.1657 32.2234 15.1666 32.1682 15.1666 32.1063C15.1404 32.1063 15.0916 32.1073 15.0204 32.1091C14.9511 32.111 14.9052 32.1119 14.8827 32.1119H14.0648C14.0405 32.1119 13.9927 32.111 13.9215 32.1091C13.8522 32.1073 13.8044 32.1063 13.7782 32.1063C13.7782 32.1682 13.7791 32.2234 13.781 32.2722C13.7828 32.3209 13.7838 32.378 13.7838 32.4436V33.4751ZM17.3548 32.7781C17.3342 32.7781 17.2874 32.7771 17.2143 32.7753C17.1431 32.7734 17.086 32.7724 17.0429 32.7724L16.7899 33.4779C16.7243 33.4948 16.6456 33.5032 16.5538 33.5032C16.4451 33.5032 16.3589 33.4901 16.2952 33.4639L16.2784 33.4357L17.3998 30.4115C17.4448 30.404 17.4991 30.3984 17.5628 30.3947C17.6265 30.389 17.6818 30.3862 17.7287 30.3862C17.7717 30.3862 17.8223 30.389 17.8804 30.3947C17.9404 30.3984 17.9929 30.404 18.0378 30.4115L19.1536 33.4498C19.1105 33.4704 19.059 33.4863 18.9991 33.4976C18.941 33.5088 18.8866 33.5144 18.836 33.5144C18.7592 33.5144 18.6946 33.4985 18.6421 33.4667C18.5915 33.4348 18.5475 33.3645 18.51 33.2559L18.3386 32.7724C18.3011 32.7724 18.2477 32.7734 18.1784 32.7753C18.1109 32.7771 18.0659 32.7781 18.0434 32.7781H17.3548ZM17.4504 31.6285L17.2003 32.3256C17.2415 32.3256 17.2902 32.3246 17.3464 32.3227C17.4045 32.3209 17.4429 32.3199 17.4616 32.3199H17.9507C17.9694 32.3199 18.0032 32.3209 18.0519 32.3227C18.1006 32.3246 18.1437 32.3256 18.1812 32.3256L17.976 31.7466C17.9348 31.6266 17.8879 31.4833 17.8355 31.3165C17.7849 31.1498 17.7408 31.0036 17.7034 30.8781H17.6781C17.6443 30.998 17.6059 31.1301 17.5628 31.2744C17.5197 31.4168 17.4823 31.5348 17.4504 31.6285ZM21.4437 31.5892C21.4418 31.4505 21.4203 31.3203 21.379 31.1985C21.3397 31.0767 21.2704 30.9774 21.171 30.9006C21.0717 30.8237 20.9331 30.7853 20.7551 30.7853C20.2229 30.7853 19.9569 31.1751 19.9569 31.9546C19.9569 32.333 20.0327 32.615 20.1845 32.8005C20.3382 32.986 20.5368 33.0788 20.7804 33.0788C20.9265 33.0788 21.0736 33.0488 21.2216 32.9889C21.3697 32.927 21.5158 32.8427 21.6601 32.7359C21.7219 32.7715 21.7791 32.8249 21.8315 32.8961C21.884 32.9673 21.9177 33.0329 21.9327 33.0929C21.7922 33.2184 21.6161 33.3261 21.4043 33.4161C21.1945 33.5041 20.9593 33.5482 20.6989 33.5482C20.4553 33.5482 20.2492 33.5032 20.0805 33.4133C19.9138 33.3233 19.7789 33.2025 19.6758 33.0507C19.5727 32.897 19.4978 32.7256 19.4509 32.5364C19.406 32.3471 19.3835 32.1522 19.3835 31.9517C19.3835 31.5751 19.4472 31.2688 19.5746 31.0327C19.7039 30.7947 19.8735 30.6195 20.0833 30.5071C20.2951 30.3947 20.5237 30.3384 20.7691 30.3384C21.0446 30.3384 21.2704 30.3881 21.4465 30.4874C21.6245 30.5867 21.7566 30.7104 21.8428 30.8584C21.929 31.0046 21.9721 31.1517 21.9721 31.2997C21.9721 31.3915 21.9487 31.4674 21.9018 31.5273C21.8568 31.5873 21.7744 31.6173 21.6545 31.6173C21.617 31.6173 21.5814 31.6145 21.5477 31.6088C21.5139 31.6032 21.4793 31.5967 21.4437 31.5892ZM24.419 31.5892C24.4171 31.4505 24.3956 31.3203 24.3543 31.1985C24.315 31.0767 24.2457 30.9774 24.1464 30.9006C24.047 30.8237 23.9084 30.7853 23.7304 30.7853C23.1982 30.7853 22.9322 31.1751 22.9322 31.9546C22.9322 32.333 23.0081 32.615 23.1598 32.8005C23.3135 32.986 23.5121 33.0788 23.7557 33.0788C23.9018 33.0788 24.0489 33.0488 24.1969 32.9889C24.345 32.927 24.4911 32.8427 24.6354 32.7359C24.6972 32.7715 24.7544 32.8249 24.8068 32.8961C24.8593 32.9673 24.893 33.0329 24.908 33.0929C24.7675 33.2184 24.5914 33.3261 24.3796 33.4161C24.1698 33.5041 23.9346 33.5482 23.6742 33.5482C23.4306 33.5482 23.2245 33.5032 23.0558 33.4133C22.8891 33.3233 22.7542 33.2025 22.6511 33.0507C22.548 32.897 22.4731 32.7256 22.4263 32.5364C22.3813 32.3471 22.3588 32.1522 22.3588 31.9517C22.3588 31.5751 22.4225 31.2688 22.5499 31.0327C22.6792 30.7947 22.8488 30.6195 23.0586 30.5071C23.2704 30.3947 23.499 30.3384 23.7444 30.3384C24.0199 30.3384 24.2457 30.3881 24.4218 30.4874C24.5998 30.5867 24.7319 30.7104 24.8181 30.8584C24.9043 31.0046 24.9474 31.1517 24.9474 31.2997C24.9474 31.3915 24.924 31.4674 24.8771 31.5273C24.8321 31.5873 24.7497 31.6173 24.6298 31.6173C24.5923 31.6173 24.5567 31.6145 24.523 31.6088C24.4892 31.6032 24.4546 31.5967 24.419 31.5892ZM28.6622 30.4115C28.7016 30.4022 28.7391 30.3956 28.7747 30.3918C28.8121 30.3881 28.8468 30.3862 28.8786 30.3862C28.918 30.3862 28.9611 30.389 29.0079 30.3947C29.0567 30.3984 29.1035 30.4087 29.1485 30.4256L29.171 30.4565L28.1732 33.4779C28.1113 33.4873 28.043 33.4929 27.968 33.4948C27.8931 33.4985 27.8209 33.5004 27.7516 33.5004C27.6598 33.5004 27.5811 33.4854 27.5155 33.4554C27.4518 33.4254 27.4031 33.3552 27.3693 33.2446L26.4587 30.4481C26.5112 30.4256 26.5646 30.4087 26.6189 30.3975C26.6751 30.3844 26.7313 30.3778 26.7875 30.3778C26.8644 30.3778 26.9271 30.3965 26.9759 30.434C27.0246 30.4696 27.0649 30.538 27.0967 30.6392L27.583 32.1316C27.6204 32.2497 27.6598 32.3846 27.701 32.5364C27.7441 32.6881 27.7825 32.8333 27.8162 32.972C27.8256 33.0001 27.8406 33.0142 27.8612 33.0142L28.6622 30.4115ZM31.8483 33.017C31.8483 33.1912 31.8211 33.3121 31.7668 33.3795C31.7124 33.4451 31.6216 33.4779 31.4941 33.4779H30.0354C29.938 33.4779 29.8602 33.4489 29.8022 33.3908C29.7441 33.3308 29.715 33.2493 29.715 33.1463V30.4424L29.7459 30.4115H31.7583C31.7658 30.4509 31.7705 30.4893 31.7724 30.5268C31.7743 30.5642 31.7752 30.5989 31.7752 30.6307C31.7752 30.6607 31.7715 30.6973 31.764 30.7404C31.7583 30.7835 31.748 30.8266 31.7331 30.8697H30.5779C30.5404 30.8697 30.4926 30.8697 30.4345 30.8697C30.3765 30.8678 30.3174 30.8668 30.2575 30.8668C30.2575 30.9081 30.2584 30.9521 30.2603 30.9989C30.2622 31.0458 30.2631 31.0973 30.2631 31.1535V31.6988C30.3212 31.6969 30.3783 31.696 30.4345 31.696C30.4926 31.696 30.5404 31.696 30.5779 31.696H31.4801C31.4932 31.7316 31.5007 31.7709 31.5026 31.814C31.5063 31.8552 31.5082 31.8899 31.5082 31.918C31.5082 31.9499 31.5063 31.9873 31.5026 32.0304C31.5007 32.0717 31.4932 32.1101 31.4801 32.1457H30.5779C30.5404 32.1457 30.4926 32.1457 30.4345 32.1457C30.3783 32.1438 30.3212 32.1429 30.2631 32.1429V32.7865C30.2631 32.8315 30.2622 32.8746 30.2603 32.9158C30.2584 32.957 30.2575 32.9945 30.2575 33.0282C30.3062 33.0245 30.3558 33.0217 30.4064 33.0198C30.4589 33.0179 30.5207 33.017 30.5919 33.017H31.8483ZM34.8432 31.3053C34.8432 31.5058 34.7786 31.6791 34.6493 31.8253C34.52 31.9695 34.3664 32.0632 34.1883 32.1063C34.2802 32.1419 34.3542 32.1916 34.4104 32.2553C34.4666 32.319 34.5153 32.3968 34.5565 32.4886L34.7758 32.9804C34.8095 33.0535 34.8442 33.1219 34.8798 33.1856C34.9172 33.2493 34.9566 33.3008 34.9978 33.3402C34.9622 33.3908 34.9097 33.432 34.8404 33.4639C34.773 33.4957 34.7027 33.5116 34.6296 33.5116C34.5359 33.5116 34.4638 33.4873 34.4132 33.4386C34.3626 33.3898 34.3167 33.3168 34.2755 33.2193L33.9972 32.5869C33.9504 32.4783 33.8914 32.3968 33.8202 32.3424C33.7508 32.2881 33.644 32.2609 33.4997 32.2609H33.1259V33.4751C33.0828 33.4826 33.0369 33.4882 32.9882 33.492C32.9395 33.4957 32.8936 33.4976 32.8505 33.4976C32.8111 33.4976 32.7652 33.4957 32.7128 33.492C32.6622 33.4882 32.6163 33.4826 32.5751 33.4751V30.4396L32.606 30.4115C32.8008 30.4059 32.9854 30.4012 33.1597 30.3975C33.3339 30.3937 33.511 30.3918 33.6909 30.3918C34.0394 30.3918 34.3186 30.4687 34.5284 30.6223C34.7383 30.7741 34.8432 31.0018 34.8432 31.3053ZM33.1259 30.8106V31.8281C33.2252 31.8262 33.3227 31.8243 33.4182 31.8225C33.5138 31.8206 33.5934 31.8196 33.6571 31.8196C33.8183 31.8196 33.9429 31.7943 34.031 31.7438C34.119 31.6913 34.1799 31.6257 34.2136 31.547C34.2492 31.4683 34.267 31.3906 34.267 31.3137C34.267 31.2332 34.2492 31.1554 34.2136 31.0804C34.1799 31.0036 34.12 30.9409 34.0338 30.8921C33.9476 30.8415 33.8267 30.8163 33.6712 30.8163C33.5944 30.8163 33.5054 30.8163 33.4042 30.8163C33.303 30.8163 33.2103 30.8144 33.1259 30.8106ZM35.3207 33.2193C35.3226 33.1463 35.3441 33.0685 35.3854 32.986C35.4285 32.9036 35.48 32.8427 35.5399 32.8034C35.6674 32.8783 35.8135 32.9476 35.9784 33.0113C36.1433 33.0732 36.3222 33.1032 36.5152 33.1013C36.6764 33.0994 36.816 33.061 36.934 32.986C37.0521 32.9092 37.1111 32.8062 37.1111 32.6769C37.1111 32.4764 36.9659 32.3284 36.6754 32.2328L36.1358 32.0304C35.9128 31.9555 35.7348 31.8552 35.6018 31.7297C35.4706 31.6023 35.405 31.4383 35.405 31.2378C35.405 30.9886 35.5015 30.7778 35.6945 30.6055C35.8875 30.4331 36.1611 30.3441 36.5152 30.3384C36.7082 30.3366 36.8994 30.36 37.0886 30.4087C37.2797 30.4556 37.4409 30.5099 37.572 30.5717C37.572 30.6523 37.5542 30.7319 37.5186 30.8106C37.4849 30.8875 37.4381 30.9493 37.3781 30.9961C37.2432 30.9343 37.0961 30.8846 36.9368 30.8472C36.7794 30.8097 36.6352 30.7919 36.504 30.7938C36.341 30.7956 36.2136 30.8331 36.1217 30.9062C36.0299 30.9793 35.984 31.073 35.984 31.1873C35.984 31.2809 36.0187 31.3521 36.088 31.4009C36.1592 31.4496 36.2613 31.4974 36.3944 31.5442L36.9143 31.7438C37.1373 31.8206 37.3238 31.9321 37.4737 32.0782C37.6254 32.2225 37.7013 32.4024 37.7013 32.6179C37.7013 32.8952 37.5936 33.1191 37.3781 33.2896C37.1645 33.4582 36.8769 33.5444 36.5152 33.5482C36.2473 33.55 36.0112 33.5154 35.807 33.4442C35.6027 33.373 35.4406 33.298 35.3207 33.2193ZM40.4997 33.017C40.4997 33.1912 40.4726 33.3121 40.4182 33.3795C40.3639 33.4451 40.273 33.4779 40.1456 33.4779H38.6869C38.5894 33.4779 38.5117 33.4489 38.4536 33.3908C38.3955 33.3308 38.3665 33.2493 38.3665 33.1463V30.4424L38.3974 30.4115H40.4098C40.4173 30.4509 40.422 30.4893 40.4238 30.5268C40.4257 30.5642 40.4266 30.5989 40.4266 30.6307C40.4266 30.6607 40.4229 30.6973 40.4154 30.7404C40.4098 30.7835 40.3995 30.8266 40.3845 30.8697H39.2293C39.1919 30.8697 39.1441 30.8697 39.086 30.8697C39.0279 30.8678 38.9689 30.8668 38.9089 30.8668C38.9089 30.9081 38.9099 30.9521 38.9117 30.9989C38.9136 31.0458 38.9145 31.0973 38.9145 31.1535V31.6988C38.9726 31.6969 39.0298 31.696 39.086 31.696C39.1441 31.696 39.1919 31.696 39.2293 31.696H40.1315C40.1447 31.7316 40.1521 31.7709 40.154 31.814C40.1578 31.8552 40.1596 31.8899 40.1596 31.918C40.1596 31.9499 40.1578 31.9873 40.154 32.0304C40.1521 32.0717 40.1447 32.1101 40.1315 32.1457H39.2293C39.1919 32.1457 39.1441 32.1457 39.086 32.1457C39.0298 32.1438 38.9726 32.1429 38.9145 32.1429V32.7865C38.9145 32.8315 38.9136 32.8746 38.9117 32.9158C38.9099 32.957 38.9089 32.9945 38.9089 33.0282C38.9576 33.0245 39.0073 33.0217 39.0579 33.0198C39.1103 33.0179 39.1722 33.017 39.2434 33.017H40.4997ZM42.2255 31.0046C42.2049 30.9577 42.189 30.9015 42.1778 30.8359C42.1684 30.7703 42.1637 30.7048 42.1637 30.6392C42.1637 30.42 42.2237 30.2232 42.3436 30.049C42.4635 29.8728 42.6434 29.7398 42.8832 29.6498C42.9319 29.6742 42.9694 29.7126 42.9956 29.7651C43.0238 29.8175 43.035 29.87 43.0294 29.9225C42.9357 29.9674 42.8495 30.0312 42.7708 30.1136C42.6921 30.196 42.6509 30.2916 42.6471 30.4003C42.6827 30.404 42.7249 30.4115 42.7736 30.4228C42.8223 30.4321 42.8579 30.4452 42.8804 30.4621C42.8954 30.4883 42.9076 30.5277 42.9169 30.5802C42.9282 30.6308 42.9338 30.6785 42.9338 30.7235C42.9338 30.7703 42.9291 30.8228 42.9198 30.8809C42.9104 30.9371 42.8973 30.9783 42.8804 31.0046C42.8504 31.0214 42.8017 31.0374 42.7343 31.0523C42.6668 31.0673 42.605 31.0748 42.5488 31.0748C42.4944 31.0748 42.4345 31.0683 42.3689 31.0552C42.3033 31.042 42.2555 31.0252 42.2255 31.0046ZM44.7361 31.0439C44.7848 30.9202 44.856 30.805 44.9497 30.6982C45.0452 30.5914 45.1605 30.5052 45.2954 30.4396C45.4303 30.3722 45.5821 30.3384 45.7507 30.3384C45.9531 30.3384 46.1283 30.3797 46.2763 30.4621C46.4243 30.5427 46.5377 30.6523 46.6164 30.791C46.697 30.9296 46.7372 31.0842 46.7372 31.2547C46.7372 31.4702 46.6745 31.6557 46.5489 31.8112C46.4253 31.9667 46.2838 32.1082 46.1245 32.2356L45.7282 32.5532C45.6083 32.645 45.5071 32.735 45.4247 32.823C45.3422 32.9111 45.2907 32.986 45.2701 33.0479C45.3919 33.0329 45.5118 33.0226 45.6299 33.017C45.7498 33.0095 45.8481 33.0057 45.925 33.0057H46.8244C46.8244 33.0357 46.8234 33.0704 46.8216 33.1097C46.8216 33.1491 46.8187 33.1847 46.8131 33.2165C46.7869 33.3908 46.6707 33.4779 46.4646 33.4779H44.9131C44.8738 33.4479 44.8279 33.4001 44.7754 33.3346C44.723 33.2671 44.6967 33.2053 44.6967 33.1491C44.6967 33.0573 44.7258 32.9589 44.7839 32.854C44.8438 32.749 44.9216 32.645 45.0171 32.542C45.1127 32.437 45.2158 32.3387 45.3263 32.2469L45.8182 31.8421C45.9306 31.7522 46.0187 31.6594 46.0824 31.5639C46.1461 31.4683 46.1779 31.3643 46.1779 31.2519C46.1779 31.1245 46.1348 31.0167 46.0486 30.9287C45.9624 30.8406 45.8519 30.7966 45.717 30.7966C45.5821 30.7966 45.464 30.8415 45.3628 30.9315C45.2635 31.0196 45.1858 31.1226 45.1296 31.2407C45.0527 31.2369 44.9769 31.2172 44.9019 31.1816C44.8288 31.1442 44.7736 31.0982 44.7361 31.0439ZM47.4226 33.2446C47.4338 33.1922 47.461 33.1294 47.5041 33.0563C47.5472 32.9832 47.5959 32.927 47.6503 32.8877C47.7514 32.957 47.8582 33.0104 47.9707 33.0479C48.085 33.0854 48.2105 33.1041 48.3473 33.1041C48.5159 33.1041 48.6621 33.0516 48.7857 32.9467C48.9113 32.8418 48.9741 32.6834 48.9741 32.4717C48.9741 32.3274 48.945 32.2113 48.8869 32.1232C48.8307 32.0332 48.7576 31.9677 48.6677 31.9264C48.5796 31.8833 48.4897 31.8618 48.3979 31.8618C48.2911 31.8618 48.1899 31.8824 48.0943 31.9236C47.9988 31.9649 47.9032 32.0173 47.8076 32.081C47.7608 32.0698 47.713 32.0473 47.6643 32.0136C47.6156 31.978 47.5753 31.9396 47.5434 31.8983L47.6193 30.4424L47.6559 30.4115H49.376C49.391 30.4546 49.4003 30.4958 49.4041 30.5352C49.4078 30.5727 49.4097 30.6055 49.4097 30.6336C49.4097 30.7872 49.3263 30.864 49.1596 30.864H48.2967C48.2405 30.864 48.1796 30.8631 48.114 30.8612C48.1121 30.9043 48.1112 30.9427 48.1112 30.9765L48.0915 31.3446C48.0878 31.4102 48.0821 31.4777 48.0747 31.547C48.1459 31.5189 48.2199 31.4964 48.2967 31.4796C48.3754 31.4627 48.456 31.4543 48.5384 31.4543C48.7295 31.4543 48.9 31.4955 49.0499 31.5779C49.1998 31.6585 49.3179 31.7728 49.4041 31.9208C49.4921 32.0689 49.5362 32.2422 49.5362 32.4408C49.5362 32.6881 49.48 32.8942 49.3675 33.0591C49.257 33.2221 49.1136 33.3449 48.9375 33.4273C48.7633 33.5079 48.5787 33.5482 48.3838 33.5482C48.1833 33.5482 48.0016 33.5201 47.8386 33.4639C47.6755 33.4076 47.5369 33.3346 47.4226 33.2446Z" fill="#DCD0F8"/>
<path d="M11.4126 25.4595C11.1991 25.4966 10.9671 25.5244 10.7166 25.543C10.4661 25.5615 10.2248 25.5708 9.9928 25.5708C9.78865 25.5708 9.55666 25.5615 9.29684 25.543C9.04629 25.5244 8.82359 25.4966 8.62872 25.4595V6.44581C8.82359 6.40869 9.04629 6.38085 9.29684 6.36229C9.55666 6.34373 9.78865 6.33445 9.9928 6.33445C10.2248 6.33445 10.4661 6.34373 10.7166 6.36229C10.9671 6.38085 11.1991 6.40869 11.4126 6.44581V12.4032C11.4126 12.793 11.4079 13.141 11.3986 13.4472C11.3894 13.7534 11.3847 14.0921 11.3847 14.4633C11.4682 14.4633 11.6214 14.4633 11.8441 14.4633C12.076 14.454 12.3034 14.4494 12.5261 14.4494C12.7488 14.4401 12.9019 14.4354 12.9854 14.4354H17.8572C17.9407 14.4354 18.0938 14.4401 18.3165 14.4494C18.5392 14.4494 18.7619 14.454 18.9846 14.4633C19.2166 14.4633 19.379 14.4633 19.4718 14.4633C19.4718 14.0921 19.4672 13.7534 19.4579 13.4472C19.4486 13.141 19.444 12.793 19.444 12.4032V6.44581C19.6388 6.40869 19.8615 6.38085 20.1121 6.36229C20.3626 6.34373 20.5946 6.33445 20.808 6.33445C21.0307 6.33445 21.2674 6.34373 21.5179 6.36229C21.7777 6.38085 22.0097 6.40869 22.2139 6.44581V25.4595C22.0005 25.4966 21.7731 25.5244 21.5318 25.543C21.2906 25.5615 21.0539 25.5708 20.822 25.5708C20.5993 25.5708 20.3626 25.5615 20.1121 25.543C19.8708 25.5244 19.6481 25.4966 19.444 25.4595V18.8757C19.444 18.4859 19.4486 18.138 19.4579 17.8317C19.4672 17.5255 19.4718 17.1868 19.4718 16.8156C19.379 16.8156 19.2166 16.8203 18.9846 16.8296C18.7619 16.8296 18.5392 16.8342 18.3165 16.8435C18.0938 16.8435 17.9407 16.8435 17.8572 16.8435H12.9854C12.9019 16.8435 12.7488 16.8435 12.5261 16.8435C12.3034 16.8342 12.076 16.8296 11.8441 16.8296C11.6214 16.8203 11.4682 16.8156 11.3847 16.8156C11.3847 17.1868 11.3894 17.5255 11.3986 17.8317C11.4079 18.138 11.4126 18.4859 11.4126 18.8757V25.4595Z" fill="#DCD0F8"/>
<path d="M36.7575 24V20.6863H33.4438V7.43131H36.7575V20.6863H43.385V24H36.7575ZM43.385 20.6863V7.43131H46.6988V20.6863H43.385Z" fill="#4C00FF"/>
</svg>
